<svg xmlns="http://www.w3.org/2000/svg" fill="#4998F5" viewBox="0 0 447.75 489.71">
    <title>icon_reload</title>
    <g id="Layer_2" data-name="Layer 2">
        <g id="Capa_1" data-name="Capa 1">
            <path d="M91.17,97.11c72.3-65.4,180.5-66.4,253.8-6.7l-58.1,2.2a13.5,13.5,0,0,0,.5,27h.5l89.2-3.3a13.47,13.47,0,0,0,13-13.5v-1.6h0L386.77,13a13.51,13.51,0,1,0-27,1l2.1,55.3a222,222,0,0,0-288.8,7.8,222.11,222.11,0,0,0-66.8,217.1,13.44,13.44,0,0,0,13.1,10.3,11.7,11.7,0,0,0,3.2-.4,13.52,13.52,0,0,0,9.9-16.3A195.11,195.11,0,0,1,91.17,97.11Z"/>
            <path d="M441.47,195.51a13.49,13.49,0,1,0-26.2,6.4A195.08,195.08,0,0,1,101.17,398l58.8-5.3a13.51,13.51,0,0,0-2.5-26.9l-88.9,8a13.49,13.49,0,0,0-12.2,14.7l8,88.9a13.48,13.48,0,0,0,13.4,12.3,4.87,4.87,0,0,0,1.2-.1,13.49,13.49,0,0,0,12.2-14.7l-4.8-54.1a220.54,220.54,0,0,0,128.3,48.9c3.8.2,7.6.3,11.3.3a222.07,222.07,0,0,0,215.5-274.5Z"/>
        </g>
    </g>
</svg>