<svg xmlns="http://www.w3.org/2000/svg" width="92" height="88" viewBox="0 0 92 88">
<defs>
    <style>
      .cls-1 {
        fill: #4680ba;
        fill-rule: evenodd;
      }
    </style>
  </defs>
  <path class="cls-1" d="M1291.3,2368.27a8.794,8.794,0,0,1-2.77,5.6,1.9,1.9,0,0,0-.58,1.88l0.78,3.14a1.934,1.934,0,0,0,1.4,1.39l6.86,1.72a6.542,6.542,0,0,1,2.63,1.35,1.917,1.917,0,0,0,2.46-2.94,10.4,10.4,0,0,0-4.16-2.14L1292,2377v-1a13.035,13.035,0,0,0,2.92-6.07,3.607,3.607,0,0,0,1.92-2.74l0.41-3.33a3.54,3.54,0,0,0-.85-2.79,3.707,3.707,0,0,0-.7-0.62l0.1-2.04,0.35-.35c0.99-1.05,2.32-3.29.21-6.52-1.01-1.54-3.07-3.37-7.22-3.37a12.113,12.113,0,0,0-6.66,1.68c-7.89.28-8.82,4.53-8.82,7.73,0,0.64.12,1.82,0.23,2.81a3.454,3.454,0,0,0-.77.66,3.536,3.536,0,0,0-.87,2.81l0.41,3.33a3.519,3.519,0,0,0,2.12,2.8,12.764,12.764,0,0,0,2.84,5.72l-0.28,1.13L1272,2378c-4.66,1.17-8,6.19-8,11a2.06,2.06,0,0,0,2,2h27a2,2,0,0,0,0-4h-25c0.66-2.19,2.21-4.43,4.52-5.01l6.87-1.71a1.918,1.918,0,0,0,1.39-1.4l0.82-3.27a1.909,1.909,0,0,0-.55-1.86,8.658,8.658,0,0,1-2.64-5.49,1.775,1.775,0,0,0-1.94-1.54l-0.49-3.06a1.9,1.9,0,0,0,1.9-2.15c-0.15-1.16-.38-3.25-0.38-3.93,0-1.98,0-3.85,5.61-3.91a1.946,1.946,0,0,0,1.09-.36,8.227,8.227,0,0,1,4.94-1.31c2.94,0,3.74,1.23,4.02,1.64,0.78,1.19.46,1.53,0.25,1.76l-0.84.83a2,2,0,0,0-.56,1.26l-0.2,4.18a1.484,1.484,0,0,0,.4,1.26,1.521,1.521,0,0,0,1.25.46l-0.25,3.12A1.91,1.91,0,0,0,1291.3,2368.27ZM1312,2360h11a2,2,0,0,0,0-4h-11A2,2,0,0,0,1312,2360Zm26-31h-72a10.314,10.314,0,0,0-10,10v49a10.314,10.314,0,0,0,10,10h27a2,2,0,0,0,0-4h-27a6.194,6.194,0,0,1-6-6v-43h84v37a2,2,0,0,0,4,0v-43A10.314,10.314,0,0,0,1338,2329Zm6,12h-84v-2a6.194,6.194,0,0,1,6-6h72a6.194,6.194,0,0,1,6,6v2h0Zm-6,19a2,2,0,0,0,0-4h-7a2,2,0,0,0,0,4h7Zm10,30.33a2.692,2.692,0,0,0-2.9-2.72,9.51,9.51,0,0,0-4.03,1.31c-1.87-3.95-4.94-7.46-7.13-8.55-1.46-.73-6.41-1.54-10.86-1.54s-9.4.81-10.85,1.54c-2.19,1.09-5.26,4.6-7.14,8.55a9.51,9.51,0,0,0-4.03-1.31,2.975,2.975,0,0,0-1.85.57,2.617,2.617,0,0,0-1.04,2.15,7.568,7.568,0,0,0,2.58,5.29,2.016,2.016,0,0,0,.69.37A25.5,25.5,0,0,0,1300,2404c0,2.86.35,3.5,2,5.99v3.18a3.786,3.786,0,0,0,3.83,3.83h3.84a3.786,3.786,0,0,0,3.83-3.83v-1.3a41.287,41.287,0,0,0,9.5,1.13,42.917,42.917,0,0,0,9.67-1.13v1.3a3.786,3.786,0,0,0,3.83,3.83h3.83a3.8,3.8,0,0,0,3.84-3.83v-3.18c1.65-2.49,1.83-3.13,1.83-5.99a24.894,24.894,0,0,0-1.28-8.01,1.849,1.849,0,0,0,.69-0.37A7.524,7.524,0,0,0,1348,2390.33Zm-34.07-6.53a37.732,37.732,0,0,1,18.29-.01c1.45,0.73,4.83,4.55,6.17,8.72-3.6.51-12.12,1.66-15.31,1.66s-11.7-1.15-15.31-1.66C1309.11,2388.34,1312.49,2384.52,1313.93,2383.8Zm-4.26,29.37h-3.84v-1.92h3.84v1.92Zm30.66,0h-3.83v-1.92h3.83v1.92ZM1341,2408h-6c-0.2,0-1.8-.06-2,0a26,26,0,0,1-20,0c-0.07-.02-0.93.01-1,0-0.13-.03-2.85,0-3,0h-4c-0.5-1.15-1-.12-1-4,0-.61-0.04-1.5.03-2.16,2.57,0.07,5.64.94,5.64,1.91a1.915,1.915,0,1,0,3.83,0c0-4.68-6.33-5.55-8.72-5.71a14.522,14.522,0,0,1,.76-1.98h0.01c0.54,0.08,13.19,1.94,17.53,1.94s17-1.86,17.53-1.94h0.01a14.522,14.522,0,0,1,.76,1.98c-2.39.16-8.71,1.03-8.71,5.71a1.915,1.915,0,1,0,3.83,0c0-.99,2.91-1.67,5.5-1.75a16.741,16.741,0,0,1,.25,1.75C1342.25,2407.63,1341.5,2406.85,1341,2408Zm-29-37h26a2,2,0,0,0,0-4h-26A2,2,0,0,0,1312,2371Zm14.92,30.83h-7.67a1.92,1.92,0,0,0,0,3.84h7.67A1.92,1.92,0,0,0,1326.92,2401.83Z" transform="translate(-1256 -2329)"/>
</svg>
