<svg xmlns="http://www.w3.org/2000/svg" width="92" height="63" viewBox="0 0 92 63">
<defs>
    <style>
      .cls-1 {
        fill: #4680ba;
        fill-rule: evenodd;
      }
    </style>
  </defs>
  <path class="cls-1" d="M790.368,2342H726.062a7.54,7.54,0,0,0-7.632,7.43v4.67h-4.8a7.539,7.539,0,0,0-7.63,7.43v36.04a7.539,7.539,0,0,0,7.63,7.43h64.306a7.539,7.539,0,0,0,7.631-7.43v-4.67h4.8a7.54,7.54,0,0,0,7.632-7.43v-36.04A7.54,7.54,0,0,0,790.368,2342Zm3.607,43.47a3.561,3.561,0,0,1-3.607,3.51h-4.8v-20.54h8.408v17.03Zm0-20.95h-8.408v-2.99a7.231,7.231,0,0,0-.908-3.51h9.316v6.5Zm0-10.42h-18.93a1.961,1.961,0,1,0,0,3.92h2.891a3.567,3.567,0,0,1,3.606,3.51v36.04h0a3.56,3.56,0,0,1-3.606,3.51H713.63a3.559,3.559,0,0,1-3.605-3.51v-36.04a3.559,3.559,0,0,1,3.605-3.51h48.333a1.961,1.961,0,1,0,0-3.92H722.456v-4.67a3.56,3.56,0,0,1,3.606-3.51h64.306a3.561,3.561,0,0,1,3.607,3.51v4.67Zm-25.068,0H768.2a1.961,1.961,0,1,0,0,3.92h0.705A1.961,1.961,0,1,0,768.907,2354.1Zm-40.321,11.89h-5.708a5.338,5.338,0,0,0-5.4,5.26v1.45a5.338,5.338,0,0,0,5.4,5.26h5.708a5.337,5.337,0,0,0,5.4-5.26v-1.45A5.337,5.337,0,0,0,728.586,2365.99Zm1.375,6.71a1.359,1.359,0,0,1-1.375,1.34h-5.708a1.358,1.358,0,0,1-1.374-1.34v-1.45a1.358,1.358,0,0,1,1.374-1.34h5.708a1.359,1.359,0,0,1,1.375,1.34v1.45h0Zm18.1,18.33H718.44a1.961,1.961,0,1,0,0,3.92h29.619A1.961,1.961,0,1,0,748.059,2391.03Zm-12.5-7.02H718.44a1.961,1.961,0,1,0,0,3.92h17.124A1.961,1.961,0,1,0,735.564,2384.01Zm40.681,3.94a6.372,6.372,0,0,0-5.927-5.57,6.568,6.568,0,0,0-3.794.86,0.037,0.037,0,0,1-.045,0,6.586,6.586,0,0,0-3.8-.86,6.376,6.376,0,0,0-5.925,5.57,6.1,6.1,0,0,0,.931,4.02,6.467,6.467,0,0,0,5.5,2.98,6.63,6.63,0,0,1,6.636,0,6.457,6.457,0,0,0,5.5-2.98A6.105,6.105,0,0,0,776.245,2387.95Zm-4.35,1.96h0a2.451,2.451,0,0,1-2.076,1.12,2.533,2.533,0,0,1-1.264-.34,4.049,4.049,0,0,0-4.109,0,2.532,2.532,0,0,1-1.263.34,2.457,2.457,0,0,1-2.078-1.12,2.342,2.342,0,0,1-.349-1.53,2.44,2.44,0,0,1,2.229-2.1,2.541,2.541,0,0,1,1.435.33,4.185,4.185,0,0,0,4.165,0,2.52,2.52,0,0,1,1.429-.33,2.437,2.437,0,0,1,2.231,2.1A2.354,2.354,0,0,1,771.9,2389.91Z" transform="translate(-706 -2342)"/>
</svg>
