<svg xmlns="http://www.w3.org/2000/svg" width="112" height="84" viewBox="0 0 112 84">
<defs>
    <style>
      .cls-1 {
        fill: #4680ba;
        fill-rule: evenodd;
      }
    </style>
  </defs>
  <path class="cls-1" d="M1630.37,2340H1524a3.337,3.337,0,0,0-3,3v63a3.337,3.337,0,0,0,3,3h40v11h-5c-1.45,0-2,.58-2,2s0.55,2,2,2h36c1.45,0,2-.58,2-2s-0.55-2-2-2h-5v-11h40a3.337,3.337,0,0,0,3-3v-63.43A2.6,2.6,0,0,0,1630.37,2340ZM1586,2420h-18v-11h18v11Zm43-23h-8c-1.45,0-2,.58-2,2s0.55,2,2,2h8v4H1525v-4h79c1.43,0.03,1.91-.45,2-2,0.08-1.42-.55-2-2-2h-79v-53h104v53Zm-16,0h-1c-1.45,0-2,.58-2,2s0.55,2,2,2h1c1.45,0,2-.58,2-2S1614.45,2397,1613,2397Zm-54-30h38a1,1,0,0,0,0-2h-8.17c-0.25-.73-1.12-0.73-1.83-1v-3l1-1c1.3-1.02,1.71-3.39,0-6-1.31-2.01-2.91-3-6-3a13.367,13.367,0,0,0-7,2c-8.52.03-9,3.62-9,7,0,0.79.13,2.53,1,3a3.868,3.868,0,0,0-2,2h-6A1,1,0,0,0,1559,2367Zm9.44-2.29a1.435,1.435,0,0,0,.56-0.71c-0.11-.9-1-3.14-1-4,0-2.73.53-4.94,7-5a1.307,1.307,0,0,0,1,0,10.627,10.627,0,0,1,6-2,4.407,4.407,0,0,1,4,2,5.112,5.112,0,0,1,1,3s-1,1-.91.89A5.005,5.005,0,0,0,1585,2360v4a2.262,2.262,0,0,0,.77.73c0.16,0.17,0,.26.23,0.27h-18.21A0.878,0.878,0,0,0,1568.44,2364.71ZM1592,2353h2a1.109,1.109,0,0,1,1,1v2a1,1,0,0,0,2,0v-2a3.31,3.31,0,0,0-3-3h-1.88a1.236,1.236,0,0,0-1.12,1A1.109,1.109,0,0,0,1592,2353Zm-32,4a1.109,1.109,0,0,0,1-1v-2a1.109,1.109,0,0,1,1-1h2a1,1,0,0,0,0-2h-2a3.31,3.31,0,0,0-3,3v2A1.109,1.109,0,0,0,1560,2357Zm30.55,25.58-6.7-1.67-0.57-2.29a12.017,12.017,0,0,0,3.38-6.72,2.606,2.606,0,0,0,1.9-2.2l0.03-.21a0.877,0.877,0,0,0-1.74-.22l-0.03.21a0.893,0.893,0,0,1-.95.77,0.866,0.866,0,0,0-.87.81,10.244,10.244,0,0,1-3.28,6.63,0.871,0.871,0,0,0-.27.86l0.83,3.29a0.871,0.871,0,0,0,.63.64l6.22,1.8c3.32,0.83,4.51,2.38,4.87,5.72h-34a6.114,6.114,0,0,1,5-5l7-2c0.31-.08-0.08-0.69,0-1l0.58-3.6a0.854,0.854,0,0,0-.25-0.84,10.249,10.249,0,0,1-3.13-6.51,0.872,0.872,0,0,0-.87-0.8h-0.29a0.866,0.866,0,0,1-.86-0.77l-0.03-.22a0.877,0.877,0,0,0-1.74.22l0.03,0.22a2.625,2.625,0,0,0,2.1,2.25c0.37,2.41.77,4.3,2.46,6.05v3l-7,2c-4.36,1.47-6,3.98-6,8a0.906,0.906,0,0,0,1,1h38a1.109,1.109,0,0,0,1-1C1597,2386.48,1594.94,2383.68,1590.55,2382.58ZM1595,2376v2a1.109,1.109,0,0,1-1,1h-2a1,1,0,0,0,0,2h3c1.45,0,2-.55,2-2v-3A1,1,0,0,0,1595,2376Zm-35-1a1.109,1.109,0,0,0-1,1v3c0,1.45.55,2,2,2h3a1,1,0,0,0,0-2h-2a1.109,1.109,0,0,1-1-1v-2A1.109,1.109,0,0,0,1560,2375Z" transform="translate(-1521 -2340)"/>
</svg>
