<svg xmlns="http://www.w3.org/2000/svg" width="58" height="88" viewBox="0 0 58 88">
<defs>
    <style>
      .cls-1 {
        fill: #4680ba;
        fill-rule: evenodd;
      }
    </style>
  </defs>
  <path class="cls-1" d="M1029,2370v-11c3.42,0.19,4.52,2.16,5.51,2.16,1.07,0,1.68-1.39,1.68-2.14,0-1.85-3.86-2.88-7.19-3.02v-1a1.76,1.76,0,0,0-1.44-1.32A1.8,1.8,0,0,0,1026,2355v1c-4.22.37-8.34,2.47-8.34,8.32,0,5.95,4.16,7.24,8.34,8.68v13c-5.35-.23-6.13-4.11-7.44-4.11a2.2,2.2,0,0,0-1.74,2.13c0,1.96,3.32,4.89,9.18,4.98h0v2c0,0.51.86,0.78,1.56,0.78,0.61,0,1.44-.27,1.44-0.78v-2c4.88-.65,8.04-3.54,8.04-9.2C1037.04,2373.43,1032.99,2371.44,1029,2370Zm-3-1c-2.77-1.02-4.58-1.84-4.58-5.05,0-2.97,1.77-4.67,4.58-4.95v10Zm3,17v-12c2.58,1.07,4.29,2.64,4.29,6.17C1033.29,2383.23,1031.96,2385.54,1029,2386Zm19-57h-42a8.363,8.363,0,0,0-8,8v73c0,4.08,3.77,7,8,7h42a8.363,8.363,0,0,0,8-8v-72A8.363,8.363,0,0,0,1048,2329Zm0,84h-42c-1.78,0-4-1.28-4-3v-73c0-1.72,2.22-4,4-4h42c1.78,0,4,2.28,4,4v72h0C1052,2410.72,1049.78,2413,1048,2413Zm-10-70h-1a2,2,0,0,0,0,4h1A2,2,0,0,0,1038,2343Zm7,0a1.884,1.884,0,0,0-2,2v54h-32v-52h19a2,2,0,0,0,0-4h-21a1.884,1.884,0,0,0-2,2v56a1.884,1.884,0,0,0,2,2h36a1.884,1.884,0,0,0,2-2v-56A1.884,1.884,0,0,0,1045,2343Zm-13.78-7.15h-8.44a2.141,2.141,0,1,0,0,4.28h8.44A2.141,2.141,0,1,0,1031.22,2335.85Zm-2.22,70.02h-4a2.141,2.141,0,1,0,0,4.28h4A2.141,2.141,0,1,0,1029,2405.87Zm16.35,0h-4a2.141,2.141,0,1,0,0,4.28h4A2.141,2.141,0,1,0,1045.35,2405.87Zm-32.7,0h-4a2.141,2.141,0,1,0,0,4.28h4A2.141,2.141,0,1,0,1012.65,2405.87Z" transform="translate(-998 -2329)"/>
</svg>
