<?xml version="1.0" encoding="iso-8859-1"?>
<!-- Generator: Adobe Illustrator 18.0.0, SVG Export Plug-In . SVG Version: 6.00 Build 0)  -->
<!DOCTYPE svg PUBLIC "-//W3C//DTD SVG 1.1//EN" "http://www.w3.org/Graphics/SVG/1.1/DTD/svg11.dtd">
<svg xmlns="http://www.w3.org/2000/svg" xmlns:xlink="http://www.w3.org/1999/xlink" version="1.1" id="Capa_1" x="0px" y="0px" viewBox="0 0 260.666 260.666" style="enable-background:new 0 0 260.666 260.666;" xml:space="preserve" width="512px" height="512px">
<g>
	<path d="M236.666,40.882H24c-13.233,0-24,10.767-24,24v130.902c0,13.233,10.767,24,24,24h212.666c13.233,0,24-10.767,24-24V64.882   C260.666,51.648,249.899,40.882,236.666,40.882z M245.666,195.784c0,4.962-4.037,9-9,9H24c-4.963,0-9-4.038-9-9V64.882   c0-4.962,4.037-9,9-9h212.666c4.963,0,9,4.038,9,9V195.784z" fill="#A67C54"/>
	<path d="M216.04,83.703h-68.933c-3.314,0-6,2.687-6,6s2.686,6,6,6h68.933c3.314,0,6-2.687,6-6S219.354,83.703,216.04,83.703z" fill="#A67C54"/>
	<path d="M216.04,164.963h-68.933c-3.314,0-6,2.686-6,6c0,3.313,2.686,6,6,6h68.933c3.314,0,6-2.687,6-6   C222.04,167.649,219.354,164.963,216.04,164.963z" fill="#A67C54"/>
	<path d="M216.04,118.411h-41.718c-3.313,0-6,2.687-6,6s2.687,6,6,6h41.718c3.314,0,6-2.687,6-6S219.354,118.411,216.04,118.411z" fill="#A67C54"/>
	<path d="M216.04,141.686h-41.718c-3.313,0-6,2.687-6,6c0,3.314,2.687,6,6,6h41.718c3.314,0,6-2.686,6-6   C222.04,144.373,219.354,141.686,216.04,141.686z" fill="#A67C54"/>
	<path d="M85.163,133.136c17.004,0,30.838-13.839,30.838-30.849c0-17.011-13.834-30.85-30.838-30.85   c-17.009,0-30.847,13.839-30.847,30.85C54.316,119.297,68.154,133.136,85.163,133.136z M85.163,86.438   c8.733,0,15.838,7.11,15.838,15.85c0,8.739-7.104,15.849-15.838,15.849c-8.738,0-15.847-7.11-15.847-15.849   C69.316,93.548,76.425,86.438,85.163,86.438z" fill="#A67C54"/>
	<path d="M97.097,138.68H73.415c-16.592,0-30.09,13.497-30.09,30.088v12.961c0,4.142,3.357,7.5,7.5,7.5s7.5-3.358,7.5-7.5v-12.961   c0-8.319,6.77-15.088,15.09-15.088h23.682c8.32,0,15.09,6.768,15.09,15.088v12.961c0,4.142,3.357,7.5,7.5,7.5s7.5-3.358,7.5-7.5   v-12.961C127.187,152.177,113.688,138.68,97.097,138.68z" fill="#A67C54"/>
</g>
</svg>
