<svg xmlns="http://www.w3.org/2000/svg" viewBox="0 0 756.19 477.18">
    <title>next_arrows</title>
    <g id="Layer_2" data-name="Layer 2">
        <g id="Capa_1" data-name="Capa 1">
            <path d="M500.24,229.08,275.14,4A13.51,13.51,0,0,0,256,23.08l215.5,215.5L256,454.08a13.55,13.55,0,0,0,9.5,23.1,13.17,13.17,0,0,0,9.5-4l225.1-225.1A13.43,13.43,0,0,0,500.24,229.08Z"/>
            <path d="M248.18,229.08,23.08,4A13.51,13.51,0,1,0,4,23.08l215.5,215.5L4,454.08a13.46,13.46,0,0,0,0,19.1,13.59,13.59,0,0,0,9.5,4,13.17,13.17,0,0,0,9.5-4l225.1-225.1A13.43,13.43,0,0,0,248.18,229.08Z"/>
            <path d="M752.3,229.08,527.2,4a13.51,13.51,0,1,0-19.1,19.1l215.5,215.5L508.1,454.08a13.55,13.55,0,0,0,9.5,23.1,13.17,13.17,0,0,0,9.5-4l225.1-225.1A13.43,13.43,0,0,0,752.3,229.08Z"/>
        </g>
    </g>
</svg>