<?xml version="1.0" standalone="no"?>
<!DOCTYPE svg PUBLIC "-//W3C//DTD SVG 20010904//EN"
 "http://www.w3.org/TR/2001/REC-SVG-20010904/DTD/svg10.dtd">
<svg version="1.0" xmlns="http://www.w3.org/2000/svg"
 width="16.000000pt" height="16.000000pt" viewBox="0 0 16.000000 16.000000"
 preserveAspectRatio="xMidYMid meet">
<metadata>
Created by potrace 1.11, written by Peter Selinger 2001-2013
</metadata>
<g transform="translate(0.000000,16.000000) scale(0.006154,-0.006154)"
fill="#000000" stroke="none">
<path d="M475 2138 c-4 -13 -63 -312 -70 -358 -2 -14 -7 -38 -10 -55 -23 -114
-38 -192 -69 -350 -59 -307 -75 -389 -81 -425 -3 -19 -8 -42 -10 -50 -2 -8 -7
-28 -10 -45 -2 -16 -21 -111 -40 -209 -19 -99 -33 -182 -30 -184 2 -3 138 -5
301 -5 243 0 298 3 304 14 6 12 18 66 35 164 2 17 18 98 34 180 65 331 133
681 137 705 2 14 9 48 15 75 5 28 12 66 15 85 3 19 8 38 10 41 2 4 6 24 10 45
3 22 18 104 34 184 16 80 31 157 34 173 l5 27 -305 0 c-235 0 -306 -3 -309
-12z"/>
<path d="M1255 1305 c0 -838 0 -845 20 -846 103 -3 374 0 430 5 207 20 386
102 530 243 118 114 205 271 240 429 12 53 15 268 4 314 -6 25 -13 55 -15 68
-7 37 -49 143 -74 187 -85 151 -205 269 -360 352 -139 75 -242 93 -539 93
l-236 0 0 -845z"/>
</g>
</svg>
